<svg id="cbb92aef-a4c8-4910-9d60-405154a20c92" xmlns="http://www.w3.org/2000/svg" xmlns:xlink="http://www.w3.org/1999/xlink" viewBox="0 0 1116.03 857.1"><defs><style>.cls-1,.cls-3{fill:#4285f4;}.cls-1,.cls-19,.cls-5{opacity:0.1;}.cls-1,.cls-12,.cls-4,.cls-5,.cls-8{isolation:isolate;}.cls-2{fill:none;stroke:#535461;stroke-miterlimit:10;stroke-width:2px;}.cls-4{opacity:0.25;}.cls-6{fill:#ffd037;}.cls-7{fill:#a8a8a8;}.cls-12,.cls-8{opacity:0.2;}.cls-9{fill:url(#linear-gradient);}.cls-10,.cls-20{fill:#fff;}.cls-11,.cls-12{fill:#5a5773;}.cls-13{fill:url(#linear-gradient-2);}.cls-14{fill:#efb7b9;}.cls-15{fill:#ff6484;}.cls-16{fill:#444053;}.cls-17{fill:#a1616a;}.cls-18{fill:#925978;}.cls-20{opacity:0.72;}</style><linearGradient id="linear-gradient" x1="654.32" y1="246.76" x2="654.32" y2="743" gradientTransform="matrix(1, 0, 0, -1, -41.9, 838.54)" gradientUnits="userSpaceOnUse"><stop offset="0" stop-color="gray" stop-opacity="0.25"/><stop offset="0.54" stop-color="gray" stop-opacity="0.12"/><stop offset="1" stop-color="gray" stop-opacity="0.1"/></linearGradient><linearGradient id="linear-gradient-2" x1="475.62" y1="-1.72" x2="475.62" y2="636.66" xlink:href="#linear-gradient"/></defs><title>undraw_add_to_cart_vkjp</title><path class="cls-1" d="M1089.16,582.74c-1,.73-1.92,1.44-2.9,2.13a97.09,97.09,0,0,1-11.33,6.91c-20.58,10.85-46,16.15-70.66,19.75-55.42,8.08-112,9.65-168.34,11.19-152.23,4.18-304.83,8.35-456.69-1.28-60-3.8-121.32-10.16-175.69-29.66q-11.69-4.18-22.92-9.22c-15.15-6.81-29.7-15.1-41.8-25-11.37-9.28-20.59-19.94-26.1-32.06-11.49-25.24-5.41-53.59,7.71-78.33a243.1,243.1,0,0,1,18.39-28.77c10.13-13.93,21.3-27.46,31.49-41.38,36.26-49.48,59.92-112.08,26.45-162.83-9.62-14.58-23.52-27.38-31.36-42.6-10-19.47-9.23-41.09-6-62.09q.62-4,1.31-7.92c5.43-31.14,15.65-64.69,47.16-84.13C240.56-2.75,287-1.73,327.66,5.45,390.83,16.73,449.1,40.21,508,61.41S628.49,102,693.21,104.06C750.36,105.9,817,92.13,855,56.34,891.79,21.58,961,18.93,1011,39.93c34.26,14.41,59.82,40.37,70.6,69.57a91.25,91.25,0,0,1,4.69,18.12,83.52,83.52,0,0,1,.84,17.09c-.15,2.82-.44,5.61-.84,8.37-8.34,57.62-68.37,103.07-104.86,154.54C963.55,332.76,951,363,963.22,390.07c18.7,41.31,83.73,56,123,86.74a92.22,92.22,0,0,1,19.3,19.8C1124.57,524,1117.54,560.92,1089.16,582.74Z" transform="translate(-0.17 0.02)"/><g id="d00831fc-a64a-413c-b5dd-d7bd6eafa01d"><path class="cls-2" d="M258,324.86s-46-81.52-115.32-105c-29.09-9.86-54.48-28.4-71.84-53.74A237.42,237.42,0,0,1,49.63,128" transform="translate(-0.17 0.02)"/><path class="cls-3" d="M6,112.91c7.9,7.63,44.68,15.63,44.68,15.63S41.72,92,33.8,84.35A19.93,19.93,0,0,0,6,113Z" transform="translate(-0.17 0.02)"/><path class="cls-3" d="M26.85,179c10.79,2.14,46-11.19,46-11.19S45.4,142.05,34.6,139.91A19.93,19.93,0,0,0,26.85,179Z" transform="translate(-0.17 0.02)"/><path class="cls-3" d="M102.6,250.54c10.4-3.6,34-32.87,34-32.87s-36.68-8.39-47.07-4.79A19.93,19.93,0,0,0,101.36,251c.39-.13.78-.26,1.17-.41Z" transform="translate(-0.17 0.02)"/><path class="cls-3" d="M172.1,291.73c10.86-1.8,39.1-26.65,39.1-26.65s-34.73-14.47-45.59-12.68a19.93,19.93,0,0,0,6.49,39.33Z" transform="translate(-0.17 0.02)"/><path class="cls-3" d="M103.49,139.27c0,11-19.9,42.93-19.9,42.93s-19.94-31.91-20-42.91a19.93,19.93,0,0,1,39.85-.89c0,.29,0,.59,0,.89Z" transform="translate(-0.17 0.02)"/><path class="cls-3" d="M184.17,188.54c-3.29,10.5-31.84,35-31.84,35s-9.48-36.45-6.23-47a19.93,19.93,0,0,1,38,11.91Z" transform="translate(-0.17 0.02)"/><path class="cls-3" d="M256,247.09C254.55,258,230.55,287,230.55,287s-15.5-34.28-14-45.19a19.93,19.93,0,0,1,39.5,5.31Z" transform="translate(-0.17 0.02)"/><path class="cls-4" d="M6,112.91c7.9,7.63,44.68,15.63,44.68,15.63S41.72,92,33.8,84.35A19.93,19.93,0,0,0,6,113Z" transform="translate(-0.17 0.02)"/><path class="cls-4" d="M26.85,179c10.79,2.14,46-11.19,46-11.19S45.4,142.05,34.6,139.91A19.93,19.93,0,0,0,26.85,179Z" transform="translate(-0.17 0.02)"/><path class="cls-4" d="M102.6,250.54c10.4-3.6,34-32.87,34-32.87s-36.68-8.39-47.07-4.79A19.93,19.93,0,0,0,101.36,251c.39-.13.78-.26,1.17-.41Z" transform="translate(-0.17 0.02)"/><path class="cls-4" d="M172.1,291.73c10.86-1.8,39.1-26.65,39.1-26.65s-34.73-14.47-45.59-12.68a19.93,19.93,0,0,0,6.49,39.33Z" transform="translate(-0.17 0.02)"/><path class="cls-4" d="M103.49,139.27c0,11-19.9,42.93-19.9,42.93s-19.94-31.91-20-42.91a19.93,19.93,0,0,1,39.85-.89c0,.29,0,.59,0,.89Z" transform="translate(-0.17 0.02)"/><path class="cls-4" d="M184.17,188.54c-3.29,10.5-31.84,35-31.84,35s-9.48-36.45-6.23-47a19.93,19.93,0,0,1,38,11.91Z" transform="translate(-0.17 0.02)"/><path class="cls-4" d="M256,247.09C254.55,258,230.55,287,230.55,287s-15.5-34.28-14-45.19a19.93,19.93,0,0,1,39.5,5.31Z" transform="translate(-0.17 0.02)"/><path class="cls-2" d="M255.34,323.24s-9-93.18-62.88-142.74c-22.59-20.8-38.29-48-43.9-78.24a238,238,0,0,1-3.92-43.45" transform="translate(-0.17 0.02)"/><path class="cls-3" d="M110.89,27.38c4.12,10.21,34.53,32.36,34.53,32.36s6.55-37,2.44-47.26a19.94,19.94,0,1,0-37,14.9Z" transform="translate(-0.17 0.02)"/><path class="cls-3" d="M103.1,96.23c9,6.33,46.57,8.4,46.57,8.4S135.1,70,126.1,63.64a19.94,19.94,0,0,0-23,32.59Z" transform="translate(-0.17 0.02)"/><path class="cls-3" d="M143.41,192.31c11,.93,44.44-16.26,44.44-16.26s-30.13-22.53-41.1-23.45a19.93,19.93,0,1,0-4.22,39.64l.88.07Z" transform="translate(-0.17 0.02)"/><path class="cls-3" d="M190.25,258.15c10.66,2.76,46.55-8.52,46.55-8.52s-25.89-27.3-36.54-30.06a19.93,19.93,0,0,0-10,38.58Z" transform="translate(-0.17 0.02)"/><path class="cls-3" d="M189.3,91c-4.45,10.06-35.59,31.17-35.59,31.17s-5.3-37.24-.85-47.31a19.93,19.93,0,1,1,36.71,15.53Z" transform="translate(-0.17 0.02)"/><path class="cls-3" d="M243.1,168.65c-7.26,8.27-43.29,19.1-43.29,19.1s6.08-37.12,13.35-45.39a19.92,19.92,0,1,1,29.94,26.29Z" transform="translate(-0.17 0.02)"/><path class="cls-3" d="M285.1,251.34c-5.76,9.38-39.44,26.14-39.44,26.14s-.28-37.62,5.48-47a19.94,19.94,0,1,1,34,20.86Z" transform="translate(-0.17 0.02)"/></g><ellipse class="cls-1" cx="407.99" cy="837.2" rx="111.53" ry="14.52"/><g id="_5cfdbbb0-8197-4f02-a5fd-2740d54b5dec" data-name="5cfdbbb0-8197-4f02-a5fd-2740d54b5dec"><ellipse class="cls-1" cx="182.71" cy="836.08" rx="33.88" ry="5.8"/><path class="cls-3" d="M190.24,771.48s5.49,7.19-2.54,18-14.65,20-12,26.77c0,0,12.11-20.15,22-20.43S201.1,783.6,190.24,771.48Z" transform="translate(-0.17 0.02)"/><path class="cls-5" d="M190.24,771.48a8.83,8.83,0,0,1,1.12,2.26c9.62,11.3,14.75,21.85,5.5,22.11-8.61.25-19,15.65-21.42,19.54a9.24,9.24,0,0,0,.29.89s12.11-20.15,22-20.43S201.1,783.6,190.24,771.48Z" transform="translate(-0.17 0.02)"/><path class="cls-6" d="M200.45,780.64c0,2.53-.28,4.58-.63,4.58s-.64-2-.64-4.58.36-1.34.71-1.34S200.45,778.11,200.45,780.64Z" transform="translate(-0.17 0.02)"/><path class="cls-6" d="M204,783.66c-2.22,1.21-4.16,1.94-4.33,1.63s1.5-1.54,3.72-2.75,1.34-.33,1.51,0S206.18,782.45,204,783.66Z" transform="translate(-0.17 0.02)"/><path class="cls-3" d="M161.22,771.48s-5.49,7.19,2.54,18,14.65,20,12,26.77c0,0-12.11-20.15-22-20.43S150.38,783.6,161.22,771.48Z" transform="translate(-0.17 0.02)"/><path class="cls-5" d="M161.22,771.48a8.83,8.83,0,0,0-1.12,2.26c-9.62,11.3-14.75,21.85-5.5,22.11,8.62.25,19,15.65,21.42,19.54a7.11,7.11,0,0,1-.29.89s-12.11-20.15-22-20.43S150.38,783.6,161.22,771.48Z" transform="translate(-0.17 0.02)"/><path class="cls-6" d="M151,780.64c0,2.53.28,4.58.63,4.58s.64-2,.64-4.58-.36-1.34-.71-1.34S151,778.11,151,780.64Z" transform="translate(-0.17 0.02)"/><path class="cls-6" d="M147.51,783.66c2.22,1.21,4.15,1.94,4.32,1.63s-1.5-1.54-3.72-2.75-1.34-.33-1.51,0S145.29,782.45,147.51,783.66Z" transform="translate(-0.17 0.02)"/><path class="cls-7" d="M152.76,815.34s15.36-.48,20-3.77,23.62-7.24,24.77-2,23.08,26.29,5.74,26.43-40.29-2.7-44.91-5.51S152.76,815.34,152.76,815.34Z" transform="translate(-0.17 0.02)"/><path class="cls-8" d="M203.57,834.21c-17.34.14-40.29-2.7-44.91-5.51-3.52-2.15-4.92-9.84-5.39-13.38h-.51s1,12.38,5.59,15.2,27.57,5.65,44.91,5.51c5,0,6.74-1.82,6.64-4.46C209.21,833.19,207.3,834.18,203.57,834.21Z" transform="translate(-0.17 0.02)"/><path class="cls-3" d="M665.7,814.75s-42.28-2.55-37.29,27.08c0,0-1,5.23,3.75,7.61,0,0,.08-2.19,4.34-1.45a19.09,19.09,0,0,0,4.59.22,9.5,9.5,0,0,0,5.62-2.32h0s11.88-4.9,16.5-24.33c0,0,3.42-4.24,3.29-5.33l-7.14,3s2.44,5.15.52,9.43c0,0-.23-9.24-1.6-9-.28,0-3.71,1.78-3.71,1.78s4.2,9,1,15.48c0,0,1.2-11-2.34-14.83l-5,2.93s4.9,9.26,1.58,16.82c0,0,.85-11.59-2.63-16.11l-4.55,3.55s4.6,9.13,1.79,15.4c0,0-.36-13.49-2.78-14.51,0,0-4,3.51-4.59,5,0,0,3.15,6.62,1.2,10.12,0,0-1.2-9-2.19-9,0,0-4,6-4.38,10,0,0,.18-6.07,3.42-10.61a12,12,0,0,0-6.07,3.15s.62-4.21,7-4.58c0,0,3.28-4.52,4.16-4.79,0,0-6.4-.54-10.28,1.18,0,0,3.41-4,11.45-2.17l4.49-3.66s-8.42-1.16-12,.12c0,0,4.12-3.52,13.21-1L652,821s-7.19-1.55-11.47-1c0,0,4.52-2.44,12.9.2l3.5-1.57s-5.27-1-6.81-1.19-1.62-.59-1.62-.59a18.18,18.18,0,0,1,9.89,1.1S665.83,815.22,665.7,814.75Z" transform="translate(-0.17 0.02)"/><ellipse class="cls-1" cx="636.41" cy="852.04" rx="29.92" ry="5.06"/><path class="cls-3" d="M591.63,816.33s-23.84-1.44-21,15.27a4.08,4.08,0,0,0,2.12,4.29s0-1.24,2.45-.82a11.73,11.73,0,0,0,2.58.13,5.47,5.47,0,0,0,3.17-1.31h0s6.7-2.77,9.31-13.72c0,0,1.92-2.39,1.85-3l-4,1.71s1.37,2.91.29,5.32c0,0-.13-5.21-.9-5.09-.16,0-2.09,1-2.09,1s2.36,5,.58,8.73c0,0,.67-6.23-1.32-8.37l-2.83,1.66s2.76,5.22.89,9.48c0,0,.48-6.54-1.49-9.08l-2.56,2s2.59,5.15,1,8.68c0,0-.21-7.61-1.57-8.18a15.94,15.94,0,0,0-2.59,2.79s1.78,3.74.68,5.71c0,0-.68-5.07-1.23-5.09,0,0-2.24,3.36-2.47,5.66a12.12,12.12,0,0,1,1.92-6,6.68,6.68,0,0,0-3.42,1.77s.35-2.38,4-2.58c0,0,1.84-2.55,2.34-2.7,0,0-3.61-.31-5.8.66,0,0,1.93-2.24,6.46-1.22l2.53-2.07s-4.75-.65-6.76.07c0,0,2.32-2,7.45-.54l2.75-1.64a24.6,24.6,0,0,0-6.46-.56s2.55-1.37,7.27.11l2-.88s-3-.59-3.83-.68-.92-.33-.92-.33a10.34,10.34,0,0,1,5.58.62S591.7,816.6,591.63,816.33Z" transform="translate(-0.17 0.02)"/><ellipse class="cls-1" cx="575.04" cy="837.37" rx="16.87" ry="2.85"/><path class="cls-3" d="M637,780.92s-28.77-1.74-25.38,18.43a4.92,4.92,0,0,0,2.56,5.18s0-1.49,3-1a14.81,14.81,0,0,0,3.12.15,6.61,6.61,0,0,0,3.83-1.58h0s8.09-3.34,11.23-16.57c0,0,2.33-2.88,2.24-3.62L632.69,784s1.66,3.51.36,6.42c0,0-.16-6.29-1.1-6.14-.18,0-2.52,1.21-2.52,1.21s2.86,6.11.7,10.54c0,0,.82-7.52-1.59-10.1l-3.42,2s3.34,6.3,1.08,11.45c0,0,.58-7.89-1.8-11l-3.1,2.41s3.14,6.21,1.23,10.48c0,0-.25-9.18-1.9-9.88,0,0-2.71,2.39-3.12,3.37,0,0,2.15,4.51.81,6.89,0,0-.81-6.11-1.48-6.14,0,0-2.7,4-3,6.83a14.72,14.72,0,0,1,2.32-7.22,8.15,8.15,0,0,0-4.13,2.14s.42-2.87,4.8-3.12c0,0,2.23-3.07,2.83-3.26,0,0-4.36-.36-7,.81,0,0,2.32-2.71,7.8-1.48l3.06-2.49s-5.74-.79-8.17.08c0,0,2.8-2.39,9-.65l3.33-2a32.81,32.81,0,0,0-7.8-.67s3.07-1.66,8.78.13l2.38-1.06s-3.59-.71-4.64-.82-1.1-.4-1.1-.4a12.39,12.39,0,0,1,6.73.75S637.1,781.24,637,780.92Z" transform="translate(-0.17 0.02)"/><ellipse class="cls-1" cx="617.02" cy="806.31" rx="20.37" ry="3.44"/></g><g id="_1cf578eb-5ffb-4cd7-95b8-45aaaddab7e0" data-name="1cf578eb-5ffb-4cd7-95b8-45aaaddab7e0"><path class="cls-9" d="M1088.1,584.67V95.54H136.75V556.61c12.15,10.14,26.76,18.67,42,25.68q11.26,5.19,23,9.49h875Z" transform="translate(-0.17 0.02)"/><path class="cls-10" d="M1086.26,584.87V109.54H138.83v448.1c12.1,9.86,26.65,18.15,41.8,25q11.22,5,22.92,9.22h871.38Z" transform="translate(-0.17 0.02)"/><rect class="cls-11" x="138.67" y="96.95" width="947.42" height="25.14"/></g><g id="_6703b009-63cb-4af0-a0d7-9948e224c180" data-name="6703b009-63cb-4af0-a0d7-9948e224c180"><circle class="cls-10" cx="157.59" cy="109.52" r="6.5"/><circle class="cls-10" cx="175.09" cy="109.52" r="6.5"/><circle class="cls-10" cx="192.59" cy="109.52" r="6.5"/></g><g id="_8c4e1fb4-b9ff-4530-b767-610e84618ea6" data-name="8c4e1fb4-b9ff-4530-b767-610e84618ea6"><rect class="cls-3" x="380.78" y="177.34" width="156.5" height="98.34"/><rect class="cls-12" x="164.09" y="177.34" width="156.5" height="98.34"/><rect class="cls-12" x="597.47" y="177.34" width="156.5" height="98.34"/><rect class="cls-12" x="164.09" y="317.93" width="156.5" height="98.34"/><rect class="cls-12" x="380.78" y="317.93" width="156.5" height="98.34"/><rect class="cls-12" x="597.47" y="317.93" width="156.5" height="98.34"/><rect class="cls-12" x="164.09" y="458.51" width="156.5" height="98.34"/><rect class="cls-12" x="380.78" y="458.51" width="156.5" height="98.34"/><rect class="cls-12" x="597.47" y="458.51" width="156.5" height="98.34"/></g><g id="_2796dd85-6618-42ad-b8a0-d6b4cc80ab2d" data-name="2796dd85-6618-42ad-b8a0-d6b4cc80ab2d"><path class="cls-13" d="M509.47,423.74S481.36,372.36,486.1,364s8.23-20.46,8.23-20.46,10.38-7.1,10.38-10,8.22-9.61,12.55-12.53,2.16-16.71,0-18.38-5.59-7.52-5.59-7.52,3-8.35,0-10.86.44-5,0-7.52,0-11.69,0-11.69c-3.51-4.88-7.4-7.16-11.06-8l-.32-1.32-1.85-7.79s9-17.25-5.6-26.28a24.24,24.24,0,0,0-3.23-1.7,11.21,11.21,0,0,0-.08-1.13,70.67,70.67,0,0,0-2.12-13.21c-.76-2.42-1.75-4.05-3-3.68a2,2,0,0,0-.82.47,9.06,9.06,0,0,0-1.55,1.83h0a.41.41,0,0,1-.07.11h0a31.32,31.32,0,0,0-3.44,9.55,55.2,55.2,0,0,0-1,6h0a33.37,33.37,0,0,0-1.67,3.71c-1.77,4.59-3.84,12.54-.07,18.42,3.2,5,7.51,11.87,10.64,16.87l.1.16.19.31-.33.21v.77l.29,4.21,2.42,36.38a15.38,15.38,0,0,0-2.22-.47,19.41,19.41,0,0,0-3.23-.21c-2.11-8.29-7.9-16-9-24.66a22.87,22.87,0,0,1-.17-2.61c.09-5.45,1.45-10.92,1.34-16.36,0-1,0-2-.1-3h0a8,8,0,0,0-.08-.83,24.56,24.56,0,0,0-13.37-18.63c-2.51-1.25-5.23-2.08-7.67-3.45-5.64-3.16-9.25-8.86-14.37-12.77-3.81-2.91-9.5-4.47-13.75-3a63.49,63.49,0,0,0-6.69,1.38h0a60.74,60.74,0,0,0-15.31,6.36c-.65.39-1.3.79-1.92,1.25a8.46,8.46,0,0,0-3.09,3.61,9.51,9.51,0,0,0-.48,3.89c0,.95,0,1.92.06,2.87-.28,16-17.52,28.38-18.94,44,0,.37-.06.74-.08,1.11v1.71h0v1.25c.25,6.85,3.81,13.23,4.46,20.05.06.61.09,1.21.1,1.82a30.31,30.31,0,0,1-1.77,9.18,26.8,26.8,0,0,0-6.21,2.52c-5.24,3.37-14.7,9.19-18.15,20.32a29.65,29.65,0,0,0-1.31,8.92A186.88,186.88,0,0,1,354.23,377a60.13,60.13,0,0,1-1.84,7.83,2,2,0,0,0-.06.77l-2.08,27-.37,4.75-.52,6.76s.15.41.37,1.1a31.14,31.14,0,0,1,.82,3.12,16.86,16.86,0,0,1,.27,7,4.86,4.86,0,0,1-1.46,2.57,1.54,1.54,0,0,0-.17.19c-.59.83-1.12,3.3-1.58,6.88-.18,1.4-.35,3-.52,4.66-1,10.65-1.62,26.59-2,39.77-.36,13-.49,23.27-.49,23.27a26.33,26.33,0,0,0,5.37,2.66c-.14.35-.29.71-.43,1.09a52.34,52.34,0,0,0-3.26,13.74c-.84,9.83,1.91,20.75,15.62,26.37a23,23,0,0,0,2.69.92c3,.8,5.21.58,6.84-.42,0,.59.07,1.16.1,1.73.14,2.44.26,4.67.32,6.54.43,11.7,3.33,32.16,3.33,32.16s1,8.36.13,10.86,0,12.53,0,12.53,3,5,0,7.52-3.89,15-3,16.71a.59.59,0,0,1,.05.19c.66,4.15-3.07,65.81-3.07,65.81s-3.53,9.44-6.34,19.24c-2.74,9.54-4.8,19.42-2.26,21.27,1.26.92,4.19,1.61,7.91,2.14,0,.41-.06.82-.1,1.24-.36,4.41-.93,9.16-1.75,10.36-1.19,1.7-2.44,14.88-3.05,22l-.06.79a73.58,73.58,0,0,0-3.22,9.34s-9.57,24-6.33,30.23a5.13,5.13,0,0,0,1.19,1.47h0l.31.28c4.61,3.69,16.16,4.46,20.35,4.63l-.16,5.94v.22h5.45v-.15c0-.75.12-4.19.3-8.79,0-.82.06-1.68.1-2.56,0-.69.07-1.39.1-2.11a36.89,36.89,0,0,0,2.37-13.35,58.66,58.66,0,0,1,2.1-15.48,42.93,42.93,0,0,1,2.77-7.55s1.7-9-.67-15.37a11.1,11.1,0,0,0-2-3.46v-2a58.1,58.1,0,0,1,1.28-12.82v-.2c.08-.35.17-.68.26-1l.06-.22,1.77.06c5.43.15,9.42.15,9.42.15s4.33-22.14,3.9-31.74v-1.3c-.15-9.54,2.62-22.51,2.62-22.51L409.1,666s-1.73-5.86,0-10c1.07-2.58,3.28-7.37,4.82-10.67.72-1.53,1.29-2.73,1.53-3.25l.14-.28a6.72,6.72,0,0,1-1.54-.77h0c-1.41-.94-2.67-2.78,1.55-5.49,6.49-4.18,4.33-14.62,4.33-14.62s-1.91-3.76.34-7.1,0-15.87,0-15.87a52.85,52.85,0,0,0,4.44-10.45c1.61-5,5.68-29.45,7.6-41.24.63-3.87,1-6.37,1-6.37l.06.61.06.66h0l.54,5.57.07.74L435,558s2,27.68.75,38.53v.2a12.84,12.84,0,0,1-.73,3.29c-2.3,5.2-1.88,25.86-1.76,30.43v.92c0,.25-1.63,4.08-1.22,7.06h0a4.42,4.42,0,0,0,.79,2.1,5.3,5.3,0,0,1,.77,3.25v.1a11.65,11.65,0,0,1-.12,1.44A27,27,0,0,1,432,651s-2.32,6.1-1.44,9.29h0a3,3,0,0,0,.57,1.13,2.66,2.66,0,0,1,.33,1.2v.11c.81,6.73-1.28,36.44-2.52,52.7-.5,6.42-.86,10.74-.86,10.74l-3.43,35.5.34.24c.39.28,1.12.76,2.1,1.34v.08l-.15,1.07c-.49,3.42-1.15,7.4-1.87,10.44-.06.23-.11.45-.17.66a9.61,9.61,0,0,0-3.67,1.47c-7.28,12.93-4.06,23.18,0,26.16,1.15.84,1.93,3.19,2.45,6.11l1,12.89v1.48a3.94,3.94,0,0,0,.19,1.18l.31,3.91.42,5.44h3.32v-6.59h.18c5.24.18,13.69.4,17.37.11h.1a6.48,6.48,0,0,0,1-.11,2.38,2.38,0,0,0,.58-.16c2-.94,6.81-14.72,2.43-17.85s-5.35-12-5.35-12c-.38-1.16-.76-2.26-1.15-3.31v-.68c-.12-4.29-.07-8.94.52-11.46.66-2.77,1-8.59,1.14-13.69v-1.27a17.6,17.6,0,0,0,2.23-.73l.16-.07a15.62,15.62,0,0,0,3.73-2.21l12.24-54.24,1.29-6.31,7.35-35.89s-2.59-12.53,0-14.61c.95-.76,1.21-4,1.15-7.75-.1-6.56-1.15-14.81-1.15-14.81s3.46-5.43,5.2-8.77,0-12.11,0-12.11l3.41-20.08s3.9-23.81,13.41-43.86c7-14.75,2.54-54.58-2-75.78-.12-.55-.24-1.09-.36-1.61v-.08c2.14-1.06,4.76-2.34,7.56-3.68L501,464c3.55-1.67,7.31-3.39,10.68-4.82l.22-.09a73.81,73.81,0,0,1,7.43-2.78,12.64,12.64,0,0,1,2.28-.47C527.64,455.48,509.47,423.74,509.47,423.74ZM374.16,491.69H376c-.21.39-.41.79-.61,1.19-.12.24-.24.47-.35.71-.66,1.37-1.27,2.77-1.77,4.14.2-1.48.45-3.09.73-4.81C374,492.54,374.1,492.09,374.16,491.69Zm-4.86,26.07v-.14l-.15-.47c-.11-.32-.21-.64-.31-1q.93-.28,1.89-.63h.13v.33c-.05.47-.11.94-.17,1.4h0a.54.54,0,0,1,0,.18,9.73,9.73,0,0,1-.13,1.1c-.09.72-.18,1.42-.26,2.09-.19-.63-.38-1.25-.58-1.86a4.74,4.74,0,0,1-.42-1Z" transform="translate(-0.17 0.02)"/><path class="cls-14" d="M499.1,263.46l-10.8,3.82-3.92-6.5c-3-5-7.16-11.84-10.23-16.81-5.42-8.74,1.67-22.06,1.67-22.06s1.28-13.37,5.84-17.49,5.83,17.49,5.83,17.49c18.31,8.32,8.5,27.89,8.5,27.89l1.78,7.76Z" transform="translate(-0.17 0.02)"/><path class="cls-5" d="M499.1,263.46l-10.8,3.82-3.92-6.5v-.57s6.19-4.25,13.41-2.65Z" transform="translate(-0.17 0.02)"/><path class="cls-15" d="M481.66,307.26l5.41-4.58-2.71-41.22s14-9.58,24.36,5.41c0,0-.42,9.16,0,11.66s-2.91,5,0,7.49,0,10.83,0,10.83,3.29,5.83,5.37,7.49,4.17,15.41,0,18.32-12,9.58-12,12.49-10,10-10,10l-8.78-11.61Z" transform="translate(-0.17 0.02)"/><path class="cls-14" d="M364.66,557.48c-20.18-8.56-15.7-29.47-11.9-40a54.45,54.45,0,0,1,2.67-6.24l11.32-6.87s2.31,5.89,4.78,13.79C377.26,536.54,383.85,565.63,364.66,557.48Z" transform="translate(-0.17 0.02)"/><path class="cls-14" d="M392.4,748.27a34,34,0,0,0-3,8.42A60.52,60.52,0,0,0,388.1,771c.08,3.33.36,5.51.36,5.51L366,792s.13-1.81.35-4.47c.58-7.08,1.79-20.22,2.93-21.92.79-1.18,1.34-5.92,1.69-10.32s.49-8.26.49-8.26S398.49,736.88,392.4,748.27Z" transform="translate(-0.17 0.02)"/><path class="cls-14" d="M445.49,759.36s0,4.3-.16,9.3-.46,10.9-1.09,13.65c-.58,2.52-.62,7.15-.51,11.42.15,5,.51,9.5.51,9.5s-22.95-21.7-20.61-23.42c.63-.46,1.25-2.31,1.82-4.77.7-3,1.33-7,1.8-10.4.56-4,.91-7.31.91-7.31Z" transform="translate(-0.17 0.02)"/><path class="cls-5" d="M392.4,748.27a34,34,0,0,0-3,8.42,182.84,182.84,0,0,1-18.4-1.41c.34-4.3.49-8.26.49-8.26S398.49,736.88,392.4,748.27Z" transform="translate(-0.17 0.02)"/><path class="cls-5" d="M445.49,759.36s0,4.3-.16,9.3c-7.16,1.83-14.52-1.83-18.08-4,.56-4,.91-7.31.91-7.31Z" transform="translate(-0.17 0.02)"/><path class="cls-16" d="M492.48,546.66c-9.16,20-12.91,43.72-12.91,43.72l-3.33,20s1.67,8.74,0,12.07-5,8.75-5,8.75,2.5,20.4,0,22.48,0,14.57,0,14.57l-8.33,42-11.66,54.12c-11.24,9.17-26.2-2.49-26.2-2.49l3.3-35.39s5-62,2.92-64.54.83-10.41.83-10.41,2.92-7.5.84-10.41.41-9.16.41-9.16-.83-25.4,1.67-31.23,0-41.89,0-41.89l-1-11.23-.58-6.22-.05-.61s-.38,2.49-1,6.35c-1.84,11.75-5.76,36.1-7.31,41.11a53,53,0,0,1-4.27,10.41s2.16,12.49,0,15.82-.33,7.08-.33,7.08,2.08,10.41-4.17,14.57,0,6.25,0,6.25-4.58,10-6.24,14.15,0,10,0,10l-3.33,33.72s-2.92,14.15-2.5,23.73-3.75,31.64-3.75,31.64-32.06,0-37-3.75,8.25-40.33,8.25-40.33,3.75-64.12,2.91-65.78,0-14.16,2.92-16.65,0-7.5,0-7.5-.83-10,0-12.49-.13-10.83-.13-10.83-2.79-20.4-3.2-32.06-2.5-37.88-2.5-37.88,2.18-16.22,2.51-23.94c.12-2.84,1.39-6.39,3-9.73a85.94,85.94,0,0,1,6.2-10.88s98.65-29.16,102.79-26.26c1.1.77,2.7,6,4.28,13.57C494.92,492.26,499.22,532,492.48,546.66Z" transform="translate(-0.17 0.02)"/><circle class="cls-17" cx="431.53" cy="263.48" r="28.73"/><path class="cls-5" d="M490.52,471.13C487.21,472.83,485,474,485,474s-46.63,22.07-59.89,20.82c-10.26-1-36.45-.43-47.86-.15a85.94,85.94,0,0,1,6.2-10.88s98.66-29.15,102.8-26.25C487.34,458.33,488.94,463.54,490.52,471.13Z" transform="translate(-0.17 0.02)"/><path class="cls-15" d="M411.71,309.34s-26.61,4.2-32.89,8.32-18.72,12.08-18.72,29.15-2.91,34.56-4.58,39.55,26.23,45.38,26.23,45.38l-10,61.21s40-1.25,53.32,0S485,472.13,485,472.13s27.48-14.57,33.31-15-11.66-32.06-11.66-32.06-27.07-51.2-22.49-59.53,7.94-20.4,7.94-20.4l-5-42.46s-7.49-2.5-13.74,2.08-27.48,2.08-27.48,2.08Z" transform="translate(-0.17 0.02)"/><path class="cls-5" d="M366.54,383.45l-10.44,2.91-2.89,39.18s3.75,10.41,0,13.74-4.58,74.53-4.58,74.53,12.08,8.74,26.23,2.08c0,0-2.08-7.91,4.17-36.64s6.24-43.3,6.24-43.3,0-35.81,2.92-41.64,0-20.4,0-20.4-5.83-7.91-5.42-10.82S366.54,383.45,366.54,383.45Z" transform="translate(-0.17 0.02)"/><path class="cls-5" d="M371.53,518.19a26.63,26.63,0,0,1-18.77-.68,54.45,54.45,0,0,1,2.67-6.24l11.32-6.87S369.1,510.29,371.53,518.19Z" transform="translate(-0.17 0.02)"/><path class="cls-15" d="M365.91,383.45l-10.41,2.91-2.91,39.18s3.75,10.41,0,13.74S348,513.81,348,513.81s12.09,8.73,26.23,2c0,0-2.08-7.91,4.16-36.64s6.25-43.3,6.25-43.3,0-35.81,2.91-41.64,0-20.4,0-20.4-5.83-7.91-5.41-10.82S365.91,383.45,365.91,383.45Z" transform="translate(-0.17 0.02)"/><path class="cls-5" d="M472.5,389.69s-5.41,46.63-21.24,55.38C451.26,445.07,486.65,435.08,472.5,389.69Z" transform="translate(-0.17 0.02)"/><path class="cls-5" d="M393,393.86s19.56,9.57,15,16.23S393,393.86,393,393.86Z" transform="translate(-0.17 0.02)"/><path class="cls-5" d="M393,413s12.49,12.91,10,17.49S393,413,393,413Z" transform="translate(-0.17 0.02)"/><path class="cls-5" d="M493.73,306s4.9,8.32,5.37,13.74S493.73,306,493.73,306Z" transform="translate(-0.17 0.02)"/><path class="cls-5" d="M493.73,294.77s2.46-2.09,8.74,0S493.73,294.77,493.73,294.77Z" transform="translate(-0.17 0.02)"/><path class="cls-5" d="M469.69,538.12a57.89,57.89,0,0,1-30.45-3.9L434,547.66l-.58-6.22c.86-5.22,2.53-10.81,5.83-12.22C439.24,529.22,450.8,538.43,469.69,538.12Z" transform="translate(-0.17 0.02)"/><path class="cls-5" d="M384.28,555.61s25.61,5.31,32.79,4.37Z" transform="translate(-0.17 0.02)"/><path class="cls-5" d="M386.94,562.32s10.93-.47,16.39,1.72Z" transform="translate(-0.17 0.02)"/><path class="cls-5" d="M388.19,566.85a97.78,97.78,0,0,0,15.14,2Z" transform="translate(-0.17 0.02)"/><path class="cls-5" d="M387.56,624.15c.47-.31,21.86-5.31,24.52-1.72Z" transform="translate(-0.17 0.02)"/><path class="cls-5" d="M387.56,630.71s18.58-2.19,19.05,0S387.56,630.71,387.56,630.71Z" transform="translate(-0.17 0.02)"/><path class="cls-5" d="M387.56,636.64s19.83-4.1,22.17-3.1S387.56,636.64,387.56,636.64Z" transform="translate(-0.17 0.02)"/><path class="cls-5" d="M388.5,776.54,366,792s.13-1.81.35-4.47c5-12.3,11.51-18.79,11.51-18.79,5.07-1.32,8.27-.1,10.26,2.29C388.22,774.35,388.5,776.54,388.5,776.54Z" transform="translate(-0.17 0.02)"/><path class="cls-16" d="M390.69,790.43a55.68,55.68,0,0,0-4.69,23,35.64,35.64,0,0,1-4.76,18.51,18.66,18.66,0,0,1-1.58,2.26s-15.62-.13-21.09-4.66a5.45,5.45,0,0,1-1.47-1.8c-3.13-6.24,6.09-30.13,6.09-30.13,4.84-18.42,14.67-28.26,14.67-28.26C395.37,764.82,390.69,790.43,390.69,790.43Z" transform="translate(-0.17 0.02)"/><path class="cls-5" d="M381.24,831.89a18.66,18.66,0,0,1-1.58,2.26S364,834,358.57,829.49c2.69-8.9,11.27-35.83,15.29-31.25C377.64,802.54,380.27,823.23,381.24,831.89Z" transform="translate(-0.17 0.02)"/><path class="cls-16" d="M379.1,799.91,378,840.25h5.24s.85-35.39,3.19-40.34S379.1,799.91,379.1,799.91Z" transform="translate(-0.17 0.02)"/><path class="cls-5" d="M444.24,803.23s-22.95-21.7-20.61-23.42c.63-.46,1.25-2.31,1.82-4.77,4.41-.77,12,1.07,18.28,18.69C443.88,798.73,444.24,803.23,444.24,803.23Z" transform="translate(-0.17 0.02)"/><path class="cls-16" d="M447.67,827.43a2.16,2.16,0,0,1-.55.16c-2.7.47-12.65.2-18.22,0a3.94,3.94,0,0,1-3.81-3.93c0-1.5,0-3.33-.12-5.28-.26-6.16-1-13.49-3.21-15.14-3.91-3-7-13.18,0-26.07,0,0,13.42-10.25,23.1,20.56,0,0,.94,8.79,5.15,11.91S449.55,826.54,447.67,827.43Z" transform="translate(-0.17 0.02)"/><path class="cls-5" d="M447.1,827.59c-2.7.47-12.65.2-18.22,0a3.94,3.94,0,0,1-3.81-3.93c0-1.5,0-3.33-.12-5.28,1.69-7.46,4.12-15.14,7.25-16.89C432.22,801.48,441.69,800.41,447.1,827.59Z" transform="translate(-0.17 0.02)"/><polygon class="cls-16" points="423.29 800.6 425.81 834.17 429.01 834.17 429.01 797.74 423.29 800.6"/><path class="cls-5" d="M431.28,217.68a57.54,57.54,0,0,0-25.62,8.23c-2,1.21-4,2.68-4.83,4.85-.72,1.88-.42,4-.39,6,.27,17.22-18.93,30.25-18.33,47.46.24,6.83,3.67,13.19,4.3,20,1,11.36-5.67,21.81-12.11,31.22a25.87,25.87,0,0,0,18.25-6.05,138.37,138.37,0,0,1,2.55,69.75h9.21a7,7,0,0,1,2.69.33,6.65,6.65,0,0,1,2.13,1.59c8.61,8.57,14.38,21.24,11.09,32.94l19.6-7.35c4.69-1.76,9.45-3.55,13.53-6.45s7.5-7.11,8.36-12.05c.53-3,.36-6.58,2.83-8.32a15.34,15.34,0,0,1,3.86-1.43c5.38-1.9,7.76-8.12,8.86-13.72a79,79,0,0,0,1.25-20.87c-.87-11.7-4.33-23.58-1.48-35,1.61-6.41,5.19-12.38,5.48-19,.47-10.91-8.06-20.31-9.33-31.16-.89-7.56,1.84-15.21.95-22.77a24.46,24.46,0,0,0-12.87-18.57c-2.41-1.24-5-2.07-7.38-3.44-5.43-3.15-8.9-8.82-13.83-12.72s-13.14-5.37-16.85-.3Z" transform="translate(-0.17 0.02)"/><path class="cls-18" d="M431.28,216.43a57.54,57.54,0,0,0-25.62,8.23c-2,1.21-4,2.68-4.83,4.85-.72,1.88-.42,4-.39,6,.27,17.22-18.93,30.25-18.33,47.47.24,6.82,3.67,13.18,4.3,20,1,11.36-5.67,21.81-12.11,31.23a26,26,0,0,0,18.25-6,138.41,138.41,0,0,1,2.55,69.73h9.21a7,7,0,0,1,2.69.34,6.62,6.62,0,0,1,2.13,1.58c8.61,8.58,14.38,21.24,11.09,32.94l19.6-7.35c4.69-1.76,9.45-3.55,13.53-6.45s7.5-7.11,8.36-12.05c.53-3,.36-6.58,2.83-8.32a15.34,15.34,0,0,1,3.86-1.43c5.38-1.9,7.76-8.12,8.86-13.72a79.13,79.13,0,0,0,1.28-20.89c-.87-11.7-4.33-23.58-1.48-35,1.61-6.41,5.19-12.38,5.48-19,.47-10.91-8.06-20.31-9.33-31.16-.89-7.56,1.84-15.2,1-22.77A24.49,24.49,0,0,0,461.29,236c-2.41-1.24-5-2.07-7.38-3.43-5.43-3.16-8.9-8.83-13.83-12.73s-13.14-5.37-16.85-.3Z" transform="translate(-0.17 0.02)"/><g class="cls-19"><path d="M400.42,231.35a11.27,11.27,0,0,0-.06,1.16C400.39,232.13,400.41,231.74,400.42,231.35Z" transform="translate(-0.17 0.02)"/><path d="M473.1,271.38c.36-5.3,1.54-10.62,1.1-15.9C473.87,260.78,472.69,266.1,473.1,271.38Z" transform="translate(-0.17 0.02)"/><path d="M386.41,297.73c-.58-6.2-3.47-12-4.15-18.19a21.7,21.7,0,0,0-.15,3.42c.24,6.75,3.59,13.06,4.27,19.78A26.21,26.21,0,0,0,386.41,297.73Z" transform="translate(-0.17 0.02)"/><path d="M477.1,322.36a42.85,42.85,0,0,0-1,12.42,37.37,37.37,0,0,1,1-7.21c1.61-6.41,5.19-12.38,5.48-19a20.71,20.71,0,0,0-.16-3.52C481.64,311,478.53,316.54,477.1,322.36Z" transform="translate(-0.17 0.02)"/><path d="M392.55,322.9a26,26,0,0,1-14.76,6c-1.14,1.78-2.32,3.52-3.49,5.24a26,26,0,0,0,18.25-6.05,138.21,138.21,0,0,1,5.82,37.45A138.29,138.29,0,0,0,392.55,322.9Z" transform="translate(-0.17 0.02)"/><path d="M477.29,378.19c-1.1,5.6-3.48,11.82-8.86,13.71a14.72,14.72,0,0,0-3.86,1.44c-2.47,1.74-2.3,5.34-2.83,8.32-.86,4.94-4.27,9.14-8.36,12s-8.84,4.7-13.53,6.46l-18.7,7a26,26,0,0,1-.9,5.55l19.6-7.35c4.69-1.76,9.45-3.55,13.53-6.45s7.5-7.11,8.36-12.05c.53-3,.36-6.58,2.83-8.32a15.34,15.34,0,0,1,3.86-1.43c5.38-1.9,7.76-8.12,8.86-13.72a78.46,78.46,0,0,0,1.41-17.7A77.78,77.78,0,0,1,477.29,378.19Z" transform="translate(-0.17 0.02)"/><path d="M409.16,394.54A6.65,6.65,0,0,0,407,393a7.22,7.22,0,0,0-2.69-.34h-8.17c-.32,1.74-.66,3.48-1,5.21h9.21a7,7,0,0,1,2.69.34,6.62,6.62,0,0,1,2.13,1.58c6.3,6.28,11.07,14.74,11.89,23.42C422.1,412.78,416.72,402.1,409.16,394.54Z" transform="translate(-0.17 0.02)"/></g><path class="cls-5" d="M363.47,428.62s7.44-3.12,9.1,0S363.47,428.62,363.47,428.62Z" transform="translate(-0.17 0.02)"/><path class="cls-5" d="M366.1,434s7.44-3.12,9.11,0S366.1,434,366.1,434Z" transform="translate(-0.17 0.02)"/></g><g id="_5f43f84a-a268-4bb5-a31a-6b0c09aee323" data-name="5f43f84a-a268-4bb5-a31a-6b0c09aee323"><path class="cls-1" d="M827.21,30.22s-38.05-2.29-33.56,24.37c0,0-.89,4.71,3.38,6.85,0,0,.07-2,3.9-1.31a17.3,17.3,0,0,0,4.13.2,8.57,8.57,0,0,0,5-2.09h0S820.79,53.83,825,36.35c0,0,3.08-3.82,3-4.8l-6.42,2.75s2.19,4.63.46,8.48c0,0-.2-8.32-1.44-8.12-.25,0-3.33,1.6-3.33,1.6s3.77,8.07.92,13.94c0,0,1.08-9.94-2.1-13.35l-4.54,2.69s4.41,8.33,1.42,15.13c0,0,.77-10.43-2.37-14.49l-4.1,3.19s4.15,8.17,1.65,13.81c0,0-.33-12.15-2.51-13.06,0,0-3.58,3.16-4.12,4.46,0,0,2.83,6,1.07,9.1,0,0-1.08-8.08-2-8.12,0,0-3.57,5.36-3.94,9A19.44,19.44,0,0,1,799.67,49a10.68,10.68,0,0,0-5.46,2.84s.55-3.79,6.34-4.13c0,0,3-4.06,3.74-4.31,0,0-5.76-.48-9.25,1.07,0,0,3.07-3.58,10.31-2l4-3.3s-7.58-1-10.8.11c0,0,3.7-3.16,11.89-.86l4.4-2.63s-6.46-1.4-10.31-.89c0,0,4.06-2.19,11.6.18l3.15-1.41s-4.74-.93-6.12-1.08-1.46-.53-1.46-.53a16.37,16.37,0,0,1,8.89,1S827.32,30.64,827.21,30.22Z" transform="translate(-0.17 0.02)"/><path class="cls-1" d="M773,8.6s-32,20.71-12.59,39.52c0,0,2.07,4.32,6.78,3.52,0,0-1.12-1.64,2.37-3.37A17,17,0,0,0,773,46a8.59,8.59,0,0,0,2.83-4.67h0s6-9.9-1-26.44c0,0,.22-4.9-.46-5.62l-3.54,6s4.51,2.43,5.4,6.55c0,0-5.09-6.57-6-5.68-.18.18-1.74,3.27-1.74,3.27s7.83,4.26,9,10.67c0,0-5-8.65-9.61-9.5l-2.08,4.8s8.5,4.1,10.12,11.35c0,0-5.57-8.86-10.5-10.27l-1.4,5s8.2,4.16,9.51,10.2c0,0-7.46-9.58-9.76-9,0,0-1,4.66-.68,6,0,0,5.82,3.12,6.26,6.7,0,0-5.66-5.87-6.39-5.38,0,0,.3,6.43,2.17,9.61a19.49,19.49,0,0,1-3.18-9.51,10.68,10.68,0,0,0-2.72,5.52s-1.8-3.38,2.67-7.08c0,0,0-5,.45-5.69,0,0-4.92,3-6.82,6.34,0,0,.36-4.7,7.15-7.68l1.3-5s-6.72,3.66-8.63,6.49c0,0,1.11-4.74,9.06-7.74l2-4.73s-6,2.71-8.84,5.4c0,0,2-4.18,9.46-6.73l1.7-3s-4.37,2.06-5.57,2.76-1.49.44-1.49.44a16.36,16.36,0,0,1,7.75-4.47S773.32,8.88,773,8.6Z" transform="translate(-0.17 0.02)"/><path class="cls-1" d="M724.28,32.73s-19.13,33,6.7,40.93c0,0,3.81,2.91,7.64,0,0,0-1.73-.94.59-4.07a17.38,17.38,0,0,0,2-3.6,8.64,8.64,0,0,0,.41-5.45h0s.85-11.54-12.9-23.11c0,0-2-4.46-3-4.79l-.43,7s5.12.12,7.79,3.39c0,0-7.52-3.55-7.9-2.36-.08.24-.07,3.7-.07,3.7s9,.27,13,5.45c0,0-8.4-5.43-12.87-4.11l.32,5.22s9.43-.2,14.16,5.53c0,0-9-5.37-14-4.39l1,5.09s9.2,0,13.1,4.78c0,0-11-5.16-12.79-3.63,0,0,1.21,4.62,2.13,5.69,0,0,6.6.14,8.62,3.13,0,0-7.71-2.67-8.14-1.89,0,0,3.19,5.59,6.3,7.57a19.51,19.51,0,0,1-7.15-7,10.65,10.65,0,0,0,.08,6.15s-3.14-2.19-.84-7.52c0,0-2.3-4.46-2.17-5.27,0,0-3,4.93-3.2,8.74,0,0-1.82-4.35,2.88-10.08l-1.13-5.1s-4.33,6.31-4.75,9.7c0,0-1.16-4.73,4.57-11l-.38-5.11s-4.14,5.15-5.42,8.82c0,0-.14-4.62,5.37-10.29l.15-3.45s-3,3.81-3.71,5-1.13,1-1.13,1A16.41,16.41,0,0,1,724,39.91S724.7,32.82,724.28,32.73Z" transform="translate(-0.17 0.02)"/></g><path class="cls-3" d="M888.53,408.91a14.31,14.31,0,1,0,14.31,14.31h0A14.35,14.35,0,0,0,888.53,408.91ZM846.69,296.62v14.31H861l25.76,52.18L876,380.64a13.74,13.74,0,0,0-1.79,6.8c0,9.58,6.55,14.31,15.43,14.31H973.3V388H891.38a1.69,1.69,0,0,1-1.79-1.58v-.21a8.75,8.75,0,0,1,.76-1.78l7.15-11.29h53.31a14,14,0,0,0,12.52-7.51l25.77-44.31a8.34,8.34,0,0,0,.72-3.58,6.88,6.88,0,0,0-7-6.81H876.75L870,296.62ZM959,408.91a14.31,14.31,0,1,0,14.32,14.31A14.31,14.31,0,0,0,959,408.91Z" transform="translate(-0.17 0.02)"/><polygon class="cls-10" points="940.5 336.23 928.5 336.23 928.5 324.23 919.5 324.23 919.5 336.23 907.5 336.23 907.5 345.23 919.5 345.23 919.5 357.23 928.5 357.23 928.5 345.23 940.5 345.23 940.5 336.23"/><rect class="cls-20" y="0.77" width="1116.03" height="856.33"/></svg>